<svg fill="none" height="48" viewBox="0 0 144 48" width="144" xmlns="http://www.w3.org/2000/svg"><path d="m0 0h144v15h-144z" fill="#fff"/><path d="m11.561 4.088c.261.378.621.981.828 1.395l-.783.333c-.261-.567-.468-.954-.792-1.413zm1.242-.432c.279.36.63.945.846 1.341l-.765.342c-.288-.567-.513-.918-.846-1.368zm-5.148.261c.594.324 1.584.963 2.052 1.287l-.666.99c-.504-.351-1.44-.954-2.034-1.287zm-1.665 6.39c1.008-.171 2.088-.477 3.06-1.017 1.53-.855 2.79-2.088 3.501-3.375l.693 1.224c-.828 1.251-2.106 2.385-3.573 3.24-.918.513-2.214.963-3.006 1.107zm.279-4.338c.612.324 1.602.945 2.061 1.269l-.657 1.008c-.513-.36-1.449-.963-2.052-1.287zm12.276-.324c.171.387.612 1.557.738 1.971l-1.08.378c-.108-.441-.504-1.53-.729-1.998zm2.052.252 1.269.405c-.108.288-.162.477-.216.657-.234.909-.612 1.845-1.224 2.637-.837 1.08-1.962 1.836-3.015 2.232l-.945-.963c.99-.261 2.241-.945 2.988-1.881.612-.765 1.044-1.962 1.143-3.087zm-4.14.225c.225.459.657 1.548.837 2.052l-1.098.414c-.153-.486-.603-1.683-.819-2.079zm14.013-2.358c-.279 0-.495.216-.495.486s.216.495.495.495c.27 0 .486-.225.486-.495s-.216-.486-.486-.486zm0 1.53c-.576 0-1.044-.468-1.044-1.044s.468-1.035 1.044-1.035 1.035.459 1.035 1.035-.459 1.044-1.035 1.044zm-5.418 1.998 1.017.477c-.414.801-1.242 1.98-1.737 2.511l-.972-.666c.603-.576 1.323-1.566 1.692-2.322zm5.157-.801h-2.106v4.185c0 .522-.297.846-.936.846-.486 0-1.008-.027-1.467-.081l-.108-1.116c.387.072.783.108.999.108.234 0 .324-.09.333-.324.009-.333.009-3.186.009-3.609v-.009h-2.286c-.27 0-.621.009-.873.036v-1.197c.27.036.594.072.873.072h2.286v-.72c0-.234-.045-.63-.081-.783h1.332c-.018.126-.081.558-.081.783v.72h2.097c.252 0 .648-.027.882-.063v1.179c-.279-.018-.63-.027-.873-.027zm-1.251 1.305.981-.531c.459.576 1.179 1.71 1.539 2.367l-1.062.576c-.387-.774-1.026-1.863-1.458-2.412zm3.87.45v-1.413c.324.027.981.054 1.449.054h4.833c.414 0 .819-.036 1.053-.054v1.413c-.216-.009-.675-.045-1.053-.045h-4.833c-.513 0-1.116.018-1.449.045zm10.278 4.572c-.846-1.395-1.341-2.853-1.341-4.662 0-1.791.495-3.267 1.341-4.653l.828.351c-.756 1.314-1.098 2.835-1.098 4.302 0 1.485.342 2.997 1.098 4.311zm1.6824-1.818v-.801l3.105-4.752h-2.808v-1.107h4.437v.792l-3.096 4.752h3.132v1.116zm5.9515 0v-6.66h1.332v6.66zm2.9707 0v-6.66h2.187c1.476 0 2.61.513 2.61 2.088 0 1.521-1.143 2.205-2.574 2.205h-.891v2.367zm1.332-3.42h.801c.918 0 1.359-.387 1.359-1.152 0-.774-.486-1.035-1.404-1.035h-.756zm4.6709 3.42v-6.66h2.187c1.476 0 2.61.513 2.61 2.088 0 1.521-1.143 2.205-2.574 2.205h-.891v2.367zm1.332-3.42h.801c.918 0 1.359-.387 1.359-1.152 0-.774-.486-1.035-1.404-1.035h-.756zm7.317 3.546c-1.764 0-2.979-1.323-2.979-3.483 0-2.169 1.215-3.429 2.979-3.429s2.979 1.269 2.979 3.429-1.215 3.483-2.979 3.483zm0-1.152c.99 0 1.62-.909 1.62-2.331 0-1.431-.63-2.286-1.62-2.286s-1.62.855-1.62 2.286c0 1.422.63 2.331 1.62 2.331zm4.7477 2.844-.819-.351c.756-1.314 1.098-2.826 1.098-4.311 0-1.467-.342-2.988-1.098-4.302l.819-.351c.855 1.386 1.35 2.862 1.35 4.653 0 1.809-.495 3.267-1.35 4.662zm7.3794-2.493v-.585h-1.557v.585zm2.88-2.592v2.916c0 .495-.099.783-.45.945-.333.162-.81.171-1.458.171-.027-.207-.108-.486-.207-.72h-2.322v.405h-.936v-2.421h3.438v1.746c.306.009.585.009.684 0 .135-.009.171-.036.171-.144v-2.007h-5.094v3.159h-1.044v-4.05zm-2.277-1.098v-.549h-2.808v.549zm-3.825-1.26h4.914v1.98h-4.914zm2.943-1.251h3.447v.909h-7.866v-.909h3.33v-.756h1.089zm6.102-.729.963.306c-.225.594-.504 1.197-.81 1.773v6.3h-1.008v-4.698c-.18.243-.36.468-.549.666-.099-.252-.378-.819-.549-1.08.774-.783 1.512-2.025 1.953-3.267zm3.906 2.943v-1.125h-.594v1.125zm1.503 3.816v-2.889h-.603v2.889zm-3.564-2.889v2.889h.558v-2.889zm2.061 0h-.603v2.889h.603zm2.574-2.052h-1.566v1.125h1.521v5.193h-1.026v-.459h-3.564v.513h-.99v-5.247h1.449v-1.125h-1.539v-.954h5.715zm7.4794-.045v-.621h-1.1344v.621zm-2.0254 0v-.621h-1.089v.621zm-1.98 0v-.621h-1.08v.621zm5.0404-1.422v2.214h-7.1104v-2.214zm-5.5444 5.409v.45h3.942v-.45zm0-1.08v.45h3.942v-.45zm0-1.071v.441h3.942v-.441zm5.0674 3.276h-1.5304c.9544.306 1.9894.702 2.6194.981l-1.161.531c-.558-.297-1.5484-.711-2.5294-1.044l.729-.468h-2.511l.783.351c-.756.495-1.935.927-2.871 1.188-.18-.216-.567-.603-.792-.783.882-.162 1.863-.45 2.502-.756h-1.386v-3.951h6.1474zm5.751-5.409v5.922c.594-.333 1.116-.819 1.557-1.431-.549-.999-.936-2.205-1.215-3.564l1.026-.207c.18.963.45 1.872.828 2.664.351-.774.621-1.674.774-2.682h-2.655v-.702zm-2.313 3.672v.981c.414-.054.846-.117 1.278-.171v-.81zm0-1.854v.9h1.278v-.9zm1.278-1.818h-1.278v.855h1.278zm4.482-.378.702.171c-.189 1.962-.621 3.51-1.296 4.716.441.603.981 1.107 1.629 1.458-.243.198-.576.603-.738.882-.612-.369-1.116-.828-1.548-1.377-.459.558-.99 1.008-1.602 1.377-.135-.234-.378-.567-.594-.783v.846h-1.035v-1.44c-1.035.18-2.088.342-2.916.468l-.207-1.071c.243-.027.522-.054.828-.09v-4.779h-.612v-.99h4.518v.639h2.691zm3.483 2.637v.459h1.656v-.459zm0-1.143v.459h1.656v-.459zm4.419 0h-1.719v.459h1.719zm0 1.602v-.459h-1.719v.459zm1.872 1.206v.9h-1.935v1.053c0 .513-.108.756-.486.9-.369.135-.909.144-1.629.144-.045-.288-.198-.666-.333-.936.477.018 1.044.018 1.197.018.144-.009.198-.045.198-.162v-1.017h-2.925c.45.324.945.765 1.188 1.089l-.855.63c-.243-.36-.81-.9-1.287-1.26l.648-.459h-1.926v-.9h5.157v-.477h-4.293v-3.06h2.646v-.405h-3.303v-.873h3.303v-.594h1.044v.594h3.375v.873h-3.375v.405h2.763v3.06h-1.107v.477zm3.591-4.194h-1.368v.468h1.368zm-1.368 1.746h1.368v-.513h-1.368zm2.367-2.61v3.465h-2.367v4.581h-1.062v-8.046zm1.647 2.628h1.422v-.531h-1.422zm1.422-1.764h-1.422v.468h1.422zm1.08-.864v6.75c0 .612-.126.927-.522 1.089-.387.18-.981.198-1.854.198-.045-.306-.216-.81-.378-1.098.567.036 1.233.027 1.422.027s.252-.063.252-.234v-3.24h-2.439v-3.492zm7.551 6.777v-1.224h-3.195v1.224zm-1.179-4.941v.846h2.808v.945h-2.808v.981h2.277v3.429h-1.098v-.324h-3.195v.333h-1.044v-3.438h1.971v-2.772zm-.351-1.152h3.276v1.017h-6.525v1.251c0 1.449-.135 3.672-.945 5.076-.198-.18-.675-.486-.927-.603.738-1.287.801-3.177.801-4.473v-2.268h3.204v-1.035h1.116z" fill="#333"/><path d="m17.496 21.568c.696 1.008 1.656 2.616 2.208 3.72l-2.088.888c-.696-1.512-1.248-2.544-2.112-3.768zm3.312-1.152c.744.96 1.68 2.52 2.256 3.576l-2.04.912c-.768-1.512-1.368-2.448-2.256-3.648zm-13.728.696c1.584.864 4.224 2.568 5.472 3.432l-1.776 2.64c-1.344-.936-3.84-2.544-5.424-3.432zm-4.44 17.04c2.688-.456 5.568-1.272 8.16-2.712 4.08-2.28 7.44-5.568 9.336-9l1.848 3.264c-2.208 3.336-5.616 6.36-9.528 8.64-2.448 1.368-5.904 2.568-8.016 2.952zm.744-11.568c1.632.864 4.272 2.52 5.496 3.384l-1.752 2.688c-1.368-.96-3.864-2.568-5.472-3.432zm32.736-.864c.456 1.032 1.632 4.152 1.968 5.256l-2.88 1.008c-.288-1.176-1.344-4.08-1.944-5.328zm5.472.672 3.384 1.08c-.288.768-.432 1.272-.576 1.752-.624 2.424-1.632 4.92-3.264 7.032-2.232 2.88-5.232 4.896-8.04 5.952l-2.52-2.568c2.64-.696 5.976-2.52 7.968-5.016 1.632-2.04 2.784-5.232 3.048-8.232zm-11.04.6c.6 1.224 1.752 4.128 2.232 5.472l-2.928 1.104c-.408-1.296-1.608-4.488-2.184-5.544zm37.368-6.288c-.744 0-1.32.576-1.32 1.296s.576 1.32 1.32 1.32c.72 0 1.296-.6 1.296-1.32s-.576-1.296-1.296-1.296zm0 4.08c-1.536 0-2.784-1.248-2.784-2.784s1.248-2.76 2.784-2.76 2.76 1.224 2.76 2.76-1.224 2.784-2.76 2.784zm-14.448 5.328 2.712 1.272c-1.104 2.136-3.312 5.28-4.632 6.696l-2.592-1.776c1.608-1.536 3.528-4.176 4.512-6.192zm13.752-2.136h-5.616v11.16c0 1.392-.792 2.256-2.496 2.256-1.296 0-2.688-.072-3.912-.216l-.288-2.976c1.032.192 2.088.288 2.664.288.624 0 .864-.24.888-.864.024-.888.024-8.496.024-9.624v-.024h-6.096c-.72 0-1.656.024-2.328.096v-3.192c.72.096 1.584.192 2.328.192h6.096v-1.92c0-.624-.12-1.68-.216-2.088h3.552c-.048.336-.216 1.488-.216 2.088v1.92h5.592c.672 0 1.728-.072 2.352-.168v3.144c-.744-.048-1.68-.072-2.328-.072zm-3.336 3.48 2.616-1.416c1.224 1.536 3.144 4.56 4.104 6.312l-2.832 1.536c-1.032-2.064-2.736-4.968-3.888-6.432zm28.584-8.544 2.4 1.968c-.336.384-.648.696-.816 1.008-1.728 2.808-4.8 6.648-8.184 9.384 1.368 1.368 2.784 2.928 3.72 4.056l-2.808 2.232c-1.008-1.344-3.024-3.576-4.584-5.184-1.392-1.416-3.84-3.576-5.28-4.608l2.544-2.04c.96.72 2.544 2.016 4.056 3.336 2.712-2.16 4.968-4.944 6.096-6.912h-12.696c-.96 0-2.256.12-2.76.168v-3.36c.624.096 1.944.216 2.76.216h13.32c.912 0 1.728-.096 2.232-.264zm5.592 16.2v-3.672c.936.072 2.064.168 3 .168h13.776c.816 0 1.824-.072 2.64-.168v3.672c-.84-.096-1.92-.144-2.64-.144h-13.776c-.936 0-2.112.072-3 .144zm2.016-11.928v-3.48c.864.096 1.992.144 2.808.144h9.936c.96 0 1.992-.072 2.664-.144v3.48c-.696-.024-1.824-.096-2.664-.096h-9.912c-.912 0-2.016.048-2.832.096zm29.568-.192h3.48c0 5.952-.12 10.848-6.672 14.352l-2.784-2.28c.768-.264 1.632-.672 2.52-1.32 3.048-2.112 3.624-4.656 3.624-8.592 0-.744-.048-1.392-.168-2.16zm11.352-5.016 1.92 1.776c-.264.312-.72.888-.936 1.248-1.128 1.872-3.408 4.896-5.784 6.576l-2.472-1.992c1.92-1.176 3.792-3.288 4.416-4.464h-12.504c-1.008 0-1.8.072-2.928.168v-3.336c.912.144 1.92.24 2.928.24h12.936c.672 0 1.992-.072 2.424-.216z" fill="#fff"/></svg>